<svg width="737" height="342" viewBox="0 0 737 342" fill="none" xmlns="http://www.w3.org/2000/svg">
<path d="M61.15 176.4H66.25V275H61.15V176.4ZM141.004 275V176.4H146.104L201.524 265.65V176.4H206.624V275H201.524L146.104 185.58V275H141.004ZM290.463 269.9H345.883L311.033 187.79L273.973 275H268.533L311.033 174.7L353.533 275H290.463V269.9ZM415.427 275V176.4H420.527V275H415.427ZM478.327 275L425.967 222.98L472.887 176.4H480.197L433.277 222.98L485.637 275H478.327ZM554.428 269.9H609.848L574.998 187.79L537.938 275H532.498L574.998 174.7L617.498 275H554.428V269.9Z" fill="#CD0000"/>
<path d="M312.404 181C308.883 179.487 303.002 173.577 303.88 163.843C304.977 151.675 311.722 153.48 310.9 142.543C310.241 133.793 285.762 115.929 273.604 108.091H247.278C256.694 107.68 273.199 105.862 256.328 104.946C240.918 104.11 235.761 101.209 235.075 100.298C235.304 98.475 234.28 94.6653 228.356 94.009C220.952 93.1887 221.775 96.7433 216.29 94.009C211.903 91.8216 173.602 91.8216 155 92.095V81.8414H162.404C163.181 82.0693 166.079 82.7711 171.454 83.7554C176.829 84.7398 201.208 84.1656 212.725 83.7554C214.005 77.7855 214.343 66.8635 216.866 66.5354C218.359 66.3412 224.913 64.5187 224.913 64.5187C228.356 69.5605 235.075 79.14 235.075 79.5173C236.401 80.292 239.435 81.8414 240.971 81.8414C242.507 81.8414 309.711 81.8414 343.122 81.8414C341.659 79.016 340.078 72.9549 345.453 71.3144C350.827 69.6738 383.342 65.1622 398.927 63.1115C401.167 67.8054 406.03 77.6579 407.566 79.5173C409.485 81.8414 411.405 79.9274 413.05 81.8414C414.696 83.7554 414.558 87.31 418.535 87.31C422.511 87.31 431.286 87.9936 429.641 83.7554C427.996 79.5173 436.634 79.5172 434.714 74.0487C432.795 68.5801 434.714 62.7013 434.714 56.8226C434.714 52.1196 428.956 48.8476 426.076 47.7994C431.058 35.0394 442.201 9.10917 446.918 7.46859C452.813 5.41787 461.726 2 465.702 2C469.679 2 484.761 4.32415 490.931 7.46859C497.102 10.613 501.901 11.9802 504.232 17.1753C506.563 22.3705 512.458 29.7531 512.87 36.042C513.281 42.3308 512.87 52.5845 512.87 56.8226C512.87 61.0608 508.482 70.9042 512.87 74.0487C517.257 77.1931 522.057 78.0134 525.896 77.6032C529.735 77.1931 533.574 79.9274 538.373 81.8414C543.172 83.7554 559.626 98.2472 565.111 108.091C570.595 117.934 572.926 125.043 571.007 130.102C569.087 135.16 566.893 136.254 567.167 142.543C567.442 148.832 572.606 151.797 573.84 159.179C575.075 166.562 568.955 177.971 576.5 181.5M349.429 142.543L370.27 147.738V130.102L375.805 128.046C375.302 126.861 374.296 124.012 373.013 121.079C371.459 117.528 376.256 116.305 377.263 115.883C378.32 115.441 380.332 114.433 381.24 115.883C382.509 117.912 381.24 117.251 381.24 121.079C381.24 124.141 381.24 126.547 381.24 127.367H388.37C388.918 130.876 390.317 138.359 391.523 140.219C393.031 142.543 391.523 143.636 391.523 145.687C391.523 147.738 397.008 146.097 391.523 152.386C386.039 158.675 381.514 167.972 377.263 165.648C373.013 163.323 358.753 161.409 354.091 158.675C350.361 156.488 339.739 145.459 334.895 140.219L318.441 121.079L310.9 110.825C309.986 109.913 309.419 108.091 314.465 108.091C319.51 108.091 330.187 113.286 334.895 115.883L349.429 121.079V142.543ZM356.692 83.6776C355.687 83.313 354.891 82.2647 354.177 80.6525C353.3 78.6698 353.226 77.5353 355.008 76.715C356.434 76.0587 359.99 75.5301 361.59 75.3478C371.951 74.1672 389.907 72.5856 390.894 72.5856C392.128 72.5856 393.537 75.0167 394.918 77.1232C397.788 81.5 399.159 82.5937 397.788 84.2343C396.417 85.8749 395.457 85.7382 392.167 85.8749C388.876 86.0116 365.033 86.8001 362.824 85.8749C360.213 84.7811 358.227 84.2343 356.692 83.6776Z" stroke="#CD0000" stroke-width="4"/>
<path d="M247 88L256 95.5M247 95.5L255.5 88M259 88L267 95.5M259 95.5L266.5 88M270 88V95.5M272 88L276.5 95.5L280 88" stroke="#FF0202" stroke-width="2"/>
<rect y="7" width="13" height="268" fill="#FF0202"/>
<path d="M139 91C139 134.631 103.631 170 60 170C38.1484 170 19.0937 162.782 5 148.944V35.0503C19.2909 20.8953 38.4345 12 60 12C103.631 12 139 47.3695 139 91Z" stroke="#CD0000" stroke-width="10"/>
<path d="M119.238 91.0001C119.238 123.716 92.7165 150.238 60.0001 150.238C35.9725 150.238 15.2796 135.933 5.98633 115.362V66.6379C15.2796 46.0673 35.9725 31.7617 60.0001 31.7617C92.7165 31.7617 119.238 58.2836 119.238 91.0001Z" stroke="#CD0000" stroke-width="6"/>
<circle cx="60.4353" cy="90.5648" r="36.3005" stroke="#CD0000" stroke-width="4"/>
<circle cx="60.4352" cy="90.5648" r="15.6684" fill="black"/>
<line x1="34.3213" y1="89.5647" x2="85.6788" y2="89.5647" stroke="#CD0000" stroke-width="2"/>
<line x1="60.3057" y1="117.549" x2="60.3057" y2="66.1918" stroke="#CD0000" stroke-width="2"/>
<line x1="44.7668" y1="89.5647" x2="76.1036" y2="89.5647" stroke="white" stroke-width="2"/>
<line x1="60.3057" y1="106.233" x2="60.3057" y2="74.8964" stroke="white" stroke-width="2"/>
<path d="M3.2 286.6H13.568V290.216H7.36V293.992H13.568V297.736H7.36V305H3.2V286.6ZM25.376 295.56V288.808L21.632 286.6H15.008V290.216H21.216V293.992H15.008V297.736H21.632L25.376 295.56ZM36.7208 290.92V305.032H32.6888V290.92H36.7208ZM36.6568 289.608H32.6888V286.632H36.6568V289.608ZM46.645 290.92H50.709V292.296L55.445 290.92V293.928H50.709V304.968H46.645V290.92ZM65.813 293.128L62.037 290.92H56.981V293.928H61.813V304.968H65.813V293.128ZM75.415 298.76V302.824L79.063 305.032H84.311V301.64H79.479V299.016H84.311V296.552H79.063L75.415 298.76ZM75.415 295.368H79.479V293.928H84.311V290.92H79.063L75.415 293.16V295.368ZM94.615 293.16V305.032H85.847V301.64H90.551V299.016H85.719V296.552H90.551V293.928H85.719V290.92H90.967L94.615 293.16ZM104.84 286.6H108.872V296.616H110.664V298.952H108.872V305.032H104.84V286.6ZM115.912 297.64L123.24 292.808L120.584 290.92L112.264 296.616V298.952L120.328 305.032L123.944 302.824L115.912 297.64ZM131.61 298.76V302.824L135.258 305.032H140.506V301.64H135.674V299.016H140.506V296.552H135.258L131.61 298.76ZM131.61 295.368H135.674V293.928H140.506V290.92H135.258L131.61 293.16V295.368ZM150.81 293.16V305.032H142.042V301.64H146.746V299.016H141.914V296.552H146.746V293.928H141.914V290.92H147.162L150.81 293.16ZM174.789 286.6H185.029V290.376H178.821V293.992H185.029V297.736H178.821V305H174.789V286.6ZM196.837 305V297.384L193.829 295.816L196.837 294.376V288.808L193.061 286.6H186.469V290.376H192.805V293.992H186.469V297.736H192.805V305H196.837ZM209.841 290.92V305.032H205.809V290.92H209.841ZM209.777 289.608H205.809V286.632H209.777V289.608ZM226.005 293.992H230.837V296.552H226.005V293.992ZM224.597 305H220.597V296.552H217.525V293.992H220.597V288.776L224.597 286.568V305ZM230.837 291.016V289.544H226.005V286.568H231.221L234.837 288.776V291.016H230.837ZM240.613 286.6H244.709V305.032H240.613V286.6ZM273.96 296.776V293.128L270.184 290.888H265.064V293.896H269.896V296.52H265.064V298.984H270.184L273.96 296.776ZM273.96 300.552H269.768V301.608H265.064V305H270.184L273.96 302.792V300.552ZM254.632 302.792V293.128L258.408 290.888H263.496V293.896H258.664V296.52H263.496V298.984H258.664V301.608H263.496V305H258.408L254.632 302.792ZM296.664 288.808V295.56L300.312 297.736H306.904V293.992H300.568V290.376H306.904V286.6H300.312L296.664 288.808ZM318.712 296.2V302.824L314.936 305H308.472V301.384H314.68V297.736H308.344V293.992H314.936L318.712 296.2ZM300.696 299.176H296.664V302.824L300.408 305H306.904V301.384H300.696V299.176ZM318.712 292.552H314.68V290.376H308.344V286.6H314.936L318.712 288.808V292.552ZM326.002 286.6H329.938V290.92H334.802V293.992H329.938V305.032H326.002V286.6ZM345.042 293.128L341.426 290.92H336.21V293.992H341.01V305.032H345.042V293.128ZM352.335 293.128V302.76L356.079 304.968H361.135V301.544H356.335V293.928H361.135V290.92H356.079L352.335 293.128ZM371.119 293.128V302.76L367.375 304.968H362.287V301.544H367.119V293.928H362.287V290.92H367.375L371.119 293.128ZM380.401 293.128V302.76L384.145 304.968H389.201V301.544H384.401V293.928H389.201V290.92H384.145L380.401 293.128ZM399.185 293.128V302.76L395.441 304.968H390.353V301.544H395.185V293.928H390.353V290.92H395.441L399.185 293.128ZM414.548 291.016H419.348V293.992H414.548V291.016ZM423.38 300.2V302.792L419.732 305H414.548V301.64H419.348V300.2H423.38ZM413.108 288.808V301.64V305L409.108 302.792V293.992L406.228 294.024V292.616L413.108 288.808ZM435.097 290.92V305.032H431.065V290.92H435.097ZM435.033 289.608H431.065V286.632H435.033V289.608ZM445.021 290.92H449.085V292.296L453.821 290.92V293.928H449.085V304.968H445.021V290.92ZM464.189 293.128L460.413 290.92H455.357V293.928H460.189V304.968H464.189V293.128ZM473.791 306.44H477.919V307.88H482.591V311.24H477.535L473.791 309.032V306.44ZM473.791 293.128V300.968L477.535 303.208H482.591V300.616H477.855V293.992H482.591V290.92H477.535L473.791 293.128ZM493.023 290.92V309.032L489.279 311.24H484.191V307.88H488.959V303.208H484.191V300.616H488.959V293.992H484.191V290.92H493.023ZM516.393 288.808L520.137 286.6H526.761V290.216H520.553V301.256H526.633V305H520.137L516.393 302.824V288.808ZM534.409 299.048V301.256H528.329V305H534.825L538.569 302.824V299.048H534.409ZM538.569 292.456V288.808L534.825 286.6H528.201V290.216H534.409V292.456H538.569ZM548.474 286.6H552.57V305.032H548.474V286.6ZM581.886 305H577.886V303.56L573.086 305V301.64H577.886V291.016H581.886V305ZM562.814 302.792L566.43 305H571.614V301.64H566.846V291.016H562.814V302.792ZM592.45 286.568H596.482V290.984H601.282V293.96H596.482V301.64H601.154V305H592.45V286.568ZM611.522 293.192L607.874 290.984H602.69V293.96H607.618V301.64H602.818V305H607.874L611.522 302.792V293.192ZM618.845 300.584H622.493V305L618.845 307.208V300.584ZM3.2 318.6H13.568V322.216H7.36V325.992H13.568V329.736H7.36V337H3.2V318.6ZM25.376 327.56V320.808L21.632 318.6H15.008V322.216H21.216V325.992H15.008V329.736H21.632L25.376 327.56ZM35.9438 320.808V327.56L39.5918 329.736H46.1838V325.992H39.8478V322.376H46.1838V318.6H39.5918L35.9438 320.808ZM57.9918 328.2V334.824L54.2158 337H47.7518V333.384H53.9598V329.736H47.6238V325.992H54.2158L57.9918 328.2ZM39.9758 331.176H35.9438V334.824L39.6878 337H46.1838V333.384H39.9758V331.176ZM57.9918 324.552H53.9598V322.376H47.6238V318.6H54.2158L57.9918 320.808V324.552ZM70.795 318.6H81.035V322.376H74.827V325.992H81.035V329.736H74.827V337H70.795V318.6ZM92.843 337V329.384L89.835 327.816L92.843 326.376V320.808L89.067 318.6H82.475V322.376H88.811V325.992H82.475V329.736H88.811V337H92.843ZM103.359 320.808L107.103 318.6H113.727V322.216H107.519V333.256H113.599V337H107.103L103.359 334.824V320.808ZM121.375 331.048V333.256H115.295V337H121.791L125.535 334.824V331.048H121.375ZM125.535 324.456V320.808L121.791 318.6H115.167V322.216H121.375V324.456H125.535ZM136.031 332.584H139.679V337L136.031 339.208V332.584ZM169.126 320.808L172.87 318.6H179.494V322.216H173.286V333.256H179.366V337H172.87L169.126 334.824V320.808ZM187.142 331.048V333.256H181.062V337H187.558L191.302 334.824V331.048H187.142ZM191.302 324.456V320.808L187.558 318.6H180.934V322.216H187.142V324.456H191.302ZM204.408 318.6H208.344V322.92H213.208V325.992H208.344V337.032H204.408V318.6ZM223.448 325.128L219.832 322.92H214.616V325.992H219.416V337.032H223.448V325.128ZM236.253 330.76V334.824L239.901 337.032H245.149V333.64H240.317V331.016H245.149V328.552H239.901L236.253 330.76ZM236.253 327.368H240.317V325.928H245.149V322.92H239.901L236.253 325.16V327.368ZM255.453 325.16V337.032H246.685V333.64H251.389V331.016H246.557V328.552H251.389V325.928H246.557V322.92H251.805L255.453 325.16ZM274.317 323.016H279.117V325.992H274.317V323.016ZM283.149 332.2V334.792L279.501 337H274.317V333.64H279.117V332.2H283.149ZM272.877 320.808V333.64V337L268.877 334.792V325.992L265.997 326.024V324.616L272.877 320.808ZM294.675 323.016H298.675V324.392L303.475 323.016V325.992H298.675V337H294.675V323.016ZM309.075 324.776L304.915 323.016V327.368H309.075V324.776ZM319.301 330.76V334.824L322.949 337.032H328.197V333.64H323.365V331.016H328.197V328.552H322.949L319.301 330.76ZM319.301 327.368H323.365V325.928H328.197V322.92H322.949L319.301 325.16V327.368ZM338.501 325.16V337.032H329.733V333.64H334.437V331.016H329.605V328.552H334.437V325.928H329.605V322.92H334.853L338.501 325.16ZM368.56 316.968L373.104 314.248H376.304L370.384 317.896V337.608L376.304 341.224H373.104L368.56 338.504V316.968ZM406.033 334.824L402.417 337H395.793V333.384H402.001V318.6H406.033V334.824ZM388.145 331.176V333.384H394.225V337H387.729L383.985 334.824V331.176H388.145ZM419.475 318.6H423.507V325.992H429.715V329.64H423.507V337H419.475V318.6ZM441.523 318.6H437.491V325.992H431.283V329.64H437.491V337H441.523V318.6ZM459.817 338.536L455.241 341.288H452.073L457.993 337.64V317.896L452.073 314.248H455.241L459.817 317V338.536ZM472.617 332.584H476.265V337L472.617 339.208V332.584ZM505.712 318.6H509.744V337H505.712V318.6ZM520.306 322.92H524.37V324.296L529.106 322.92V325.928H524.37V336.968H520.306V322.92ZM539.474 325.128L535.698 322.92H530.642V325.928H535.474V336.968H539.474V325.128ZM571.348 337H562.644V333.64H567.316V325.96H562.516V322.984H567.316V318.568H571.348V337ZM552.276 325.192L555.924 322.984H561.108V325.96H556.18V333.64H560.98V337H555.924L552.276 334.792V325.192ZM588.512 322.92V337.032H584.48V322.92H588.512ZM588.448 321.608H584.48V318.632H588.448V321.608ZM600.996 330.76V334.824L604.644 337.032H609.892V333.64H605.06V331.016H609.892V328.552H604.644L600.996 330.76ZM600.996 327.368H605.06V325.928H609.892V322.92H604.644L600.996 325.16V327.368ZM620.196 325.16V337.032H611.428V333.64H616.132V331.016H611.3V328.552H616.132V325.928H611.3V322.92H616.548L620.196 325.16Z" fill="black"/>
</svg>
