<svg width="621" height="284" viewBox="0 0 621 284" fill="none" xmlns="http://www.w3.org/2000/svg">
<path d="M61.15 176.4H66.25V275H61.15V176.4ZM141.004 275V176.4H146.104L201.524 265.65V176.4H206.624V275H201.524L146.104 185.58V275H141.004ZM290.463 269.9H345.883L311.033 187.79L273.973 275H268.533L311.033 174.7L353.533 275H290.463V269.9ZM415.427 275V176.4H420.527V275H415.427ZM478.327 275L425.967 222.98L472.887 176.4H480.197L433.277 222.98L485.637 275H478.327ZM554.428 269.9H609.848L574.998 187.79L537.938 275H532.498L574.998 174.7L617.498 275H554.428V269.9Z" fill="#CD0000"/>
<path d="M312.404 181C308.883 179.487 303.002 173.577 303.88 163.843C304.977 151.675 311.722 153.48 310.9 142.543C310.241 133.793 285.762 115.929 273.604 108.091H247.278C256.694 107.68 273.199 105.862 256.328 104.946C240.918 104.11 235.761 101.209 235.075 100.298C235.304 98.475 234.28 94.6653 228.356 94.009C220.952 93.1887 221.775 96.7433 216.29 94.009C211.903 91.8216 173.602 91.8216 155 92.095V81.8414H162.404C163.181 82.0693 166.079 82.7711 171.454 83.7554C176.829 84.7398 201.208 84.1656 212.725 83.7554C214.005 77.7855 214.343 66.8635 216.866 66.5354C218.359 66.3412 224.913 64.5187 224.913 64.5187C228.356 69.5605 235.075 79.14 235.075 79.5173C236.401 80.292 239.435 81.8414 240.971 81.8414C242.507 81.8414 309.711 81.8414 343.122 81.8414C341.659 79.016 340.078 72.9549 345.453 71.3144C350.827 69.6738 383.342 65.1622 398.927 63.1115C401.167 67.8054 406.03 77.6579 407.566 79.5173C409.485 81.8414 411.405 79.9274 413.05 81.8414C414.696 83.7554 414.558 87.31 418.535 87.31C422.511 87.31 431.286 87.9936 429.641 83.7554C427.996 79.5173 436.634 79.5172 434.714 74.0487C432.795 68.5801 434.714 62.7013 434.714 56.8226C434.714 52.1196 428.956 48.8476 426.076 47.7994C431.058 35.0394 442.201 9.10917 446.918 7.46859C452.813 5.41787 461.726 2 465.702 2C469.679 2 484.761 4.32415 490.931 7.46859C497.102 10.613 501.901 11.9802 504.232 17.1753C506.563 22.3705 512.458 29.7531 512.87 36.042C513.281 42.3308 512.87 52.5845 512.87 56.8226C512.87 61.0608 508.482 70.9042 512.87 74.0487C517.257 77.1931 522.057 78.0134 525.896 77.6032C529.735 77.1931 533.574 79.9274 538.373 81.8414C543.172 83.7554 559.626 98.2472 565.111 108.091C570.595 117.934 572.926 125.043 571.007 130.102C569.087 135.16 566.893 136.254 567.167 142.543C567.442 148.832 572.606 151.797 573.84 159.179C575.075 166.562 568.955 177.971 576.5 181.5M349.429 142.543L370.27 147.738V130.102L375.805 128.046C375.302 126.861 374.296 124.012 373.013 121.079C371.459 117.528 376.256 116.305 377.263 115.883C378.32 115.441 380.332 114.433 381.24 115.883C382.509 117.912 381.24 117.251 381.24 121.079C381.24 124.141 381.24 126.547 381.24 127.367H388.37C388.918 130.876 390.317 138.359 391.523 140.219C393.031 142.543 391.523 143.636 391.523 145.687C391.523 147.738 397.008 146.097 391.523 152.386C386.039 158.675 381.514 167.972 377.263 165.648C373.013 163.323 358.753 161.409 354.091 158.675C350.361 156.488 339.739 145.459 334.895 140.219L318.441 121.079L310.9 110.825C309.986 109.913 309.419 108.091 314.465 108.091C319.51 108.091 330.187 113.286 334.895 115.883L349.429 121.079V142.543ZM356.692 83.6776C355.687 83.313 354.891 82.2647 354.177 80.6525C353.3 78.6698 353.226 77.5353 355.008 76.715C356.434 76.0587 359.99 75.5301 361.59 75.3478C371.951 74.1672 389.907 72.5856 390.894 72.5856C392.128 72.5856 393.537 75.0167 394.918 77.1232C397.788 81.5 399.159 82.5937 397.788 84.2343C396.417 85.8749 395.457 85.7382 392.167 85.8749C388.876 86.0116 365.033 86.8001 362.824 85.8749C360.213 84.7811 358.227 84.2343 356.692 83.6776Z" stroke="#CD0000" stroke-width="4"/>
<path d="M247 88L256 95.5M247 95.5L255.5 88M259 88L267 95.5M259 95.5L266.5 88M270 88V95.5M272 88L276.5 95.5L280 88" stroke="#FF0202" stroke-width="2"/>
<rect y="7" width="13" height="268" fill="#FF0202"/>
<path d="M139 91C139 134.631 103.631 170 60 170C38.1484 170 19.0937 162.782 5 148.944V35.0503C19.2909 20.8953 38.4345 12 60 12C103.631 12 139 47.3695 139 91Z" stroke="#CD0000" stroke-width="10"/>
<path d="M119.238 91.0001C119.238 123.716 92.7165 150.238 60.0001 150.238C35.9725 150.238 15.2796 135.933 5.98633 115.362V66.6379C15.2796 46.0673 35.9725 31.7617 60.0001 31.7617C92.7165 31.7617 119.238 58.2836 119.238 91.0001Z" stroke="#CD0000" stroke-width="6"/>
<circle cx="60.4353" cy="90.5648" r="36.3005" stroke="#CD0000" stroke-width="4"/>
<circle cx="60.4352" cy="90.5648" r="15.6684" fill="white"/>
<line x1="34.3213" y1="89.5648" x2="85.6788" y2="89.5648" stroke="#CD0000" stroke-width="2"/>
<line x1="60.3057" y1="117.549" x2="60.3057" y2="66.1917" stroke="#CD0000" stroke-width="2"/>
<line x1="44.7668" y1="89.5648" x2="76.1036" y2="89.5648" stroke="black" stroke-width="2"/>
<line x1="60.3057" y1="106.233" x2="60.3057" y2="74.8964" stroke="black" stroke-width="2"/>
</svg>
