<svg width="1920" height="809" viewBox="0 0 1920 809" fill="none" xmlns="http://www.w3.org/2000/svg">
<path d="M1026 384L0.75 752.061V15.9392L1026 384Z" fill="url(#paint0_linear_1_15)"/>
<path d="M915 384L1940.25 15.9392V752.061L915 384Z" fill="url(#paint1_linear_1_15)"/>
<line x1="0.34202" y1="19.0603" x2="616.78" y2="243.426" stroke="url(#paint2_linear_1_15)" stroke-width="2"/>
<line x1="-0.34202" y1="753.06" x2="616.096" y2="528.695" stroke="url(#paint3_linear_1_15)" stroke-width="2"/>
<line y1="-1" x2="656" y2="-1" transform="matrix(0.939693 -0.34202 -0.224617 -0.974447 1311.97 245.359)" stroke="url(#paint4_linear_1_15)" stroke-width="2"/>
<line y1="-1" x2="656" y2="-1" transform="matrix(0.939693 0.34202 0.224617 -0.974447 1312 521)" stroke="url(#paint5_linear_1_15)" stroke-width="2"/>
<defs>
<linearGradient id="paint0_linear_1_15" x1="-213.342" y1="335.497" x2="1203.66" y2="335.497" gradientUnits="userSpaceOnUse">
<stop offset="0.105" stop-color="#700000" stop-opacity="0.35"/>
<stop offset="0.725" stop-opacity="0.38"/>
</linearGradient>
<linearGradient id="paint1_linear_1_15" x1="2154.34" y1="432.503" x2="737.343" y2="432.503" gradientUnits="userSpaceOnUse">
<stop offset="0.105" stop-color="#700000" stop-opacity="0.35"/>
<stop offset="0.725" stop-opacity="0.38"/>
</linearGradient>
<linearGradient id="paint2_linear_1_15" x1="-0.17101" y1="20.4698" x2="616.267" y2="244.835" gradientUnits="userSpaceOnUse">
<stop stop-color="white"/>
<stop offset="1" stop-color="#999999" stop-opacity="0"/>
</linearGradient>
<linearGradient id="paint3_linear_1_15" x1="0.17101" y1="754.47" x2="616.609" y2="530.105" gradientUnits="userSpaceOnUse">
<stop stop-color="white"/>
<stop offset="1" stop-color="#999999" stop-opacity="0"/>
</linearGradient>
<linearGradient id="paint4_linear_1_15" x1="0" y1="0.5" x2="656" y2="0.5" gradientUnits="userSpaceOnUse">
<stop stop-color="#999999" stop-opacity="0"/>
<stop offset="1" stop-color="white"/>
</linearGradient>
<linearGradient id="paint5_linear_1_15" x1="0" y1="0.5" x2="656" y2="0.5" gradientUnits="userSpaceOnUse">
<stop stop-color="#999999" stop-opacity="0"/>
<stop offset="1" stop-color="white"/>
</linearGradient>
</defs>
</svg>
